<svg enable-background="new 0 0 199.2 199.2" viewBox="0 0 199.2 199.2" xmlns="http://www.w3.org/2000/svg"><path d="m99.6 0c-54.9 0-99.6 44.7-99.6 99.6s44.7 99.6 99.6 99.6 99.6-44.7 99.6-99.6c-.1-54.9-44.7-99.6-99.6-99.6zm85 74.6h3.3c2.3 8 3.5 16.4 3.5 25.2 0 12.1-2.4 23.6-6.6 34.2.1-18.3 0-37.9-.2-59.4zm-1.3 0c.2 22.7.3 43.3.2 62.5-2.3 5.2-5.1 10.1-8.2 14.7l-.1-.1c-.1-25.6-.1-51.4.2-77.1zm-7.8-10.7c.1-5.2.1-10.4.2-15.6 2.9 4.2 5.4 8.7 7.5 13.4v2.2zm-1.7 86.2-8.3-9.7c-.1-21.9-.1-43.8.1-65.8h8.4c-.2 25.2-.3 50.4-.2 75.5zm-140.6-75.5h7.8v95.6l-.2.2c-2.7-2.3-5.3-4.7-7.7-7.2.2-32.4.2-61.4.1-88.6zm0-10.7c0-9.3-.1-18.4-.2-27.4 2.5-2.7 5.2-5.2 8.1-7.6v34.9zm84.4 69.2-1.8-2.1-2 2.3-45.1 53c-4.1-1.5-8.1-3.2-11.9-5.2l58.9-69 46.6 54.6c-3 2.8-6.1 5.4-9.5 7.8zm32.9 43.1c-14.6 9.8-32.1 15.5-50.9 15.5-9.7 0-19-1.5-27.8-4.3l44.1-51.7zm-32.9-66.1-2-2.3-2 2.3-59.3 69.6c-3.9-2.2-7.6-4.7-11.1-7.5l72.8-85.5 57.5 67.5c-2.8 3.8-5.9 7.3-9.2 10.6zm-35.3-35.5v47.2l-30.7 36v-83.2zm-30.5-10.7v-42.6c9.3-5.7 19.6-9.7 30.7-11.8v54.4zm49.6 10.7v24.8l-8.6 10.1v-34.9zm-8.2-10.7v-55.8c2.1-.1 4.3-.2 6.4-.2h1.3c.2 18.6.3 37.3.4 56zm9.4 0c-.1-18.7-.2-37.4-.4-55.9 2.7.1 5.3.3 7.9.6.1 18.2.2 36.8.3 55.4zm7.9 10.7v14.1l-7.8 9.1c0-7.7 0-15.5 0-23.2zm1.3-10.7c-.1-18.5-.2-37.1-.3-55.2 2.6.3 5.1.8 7.6 1.3.1 17.9.2 36 .2 53.9zm7.4 10.7v11.5l-1.3-1.5-2-2.3-2 2.3-2.2 2.6c0-4.2 0-8.4 0-12.6zm1.4-10.7c0-17.8 0-35.8-.2-53.6 2.6.6 5.1 1.3 7.6 2.1.1 16.9.2 34.2.3 51.5zm7.7 10.7v22.2l-7.8-9.1c0-4.3 0-8.7 0-13.1zm1.3-10.7c-.1-17.1-.2-34.3-.3-51 2.9 1 5.8 2.1 8.5 3.4h-.6v47.6zm7.7 10.7v32.6l-7.6-8.9c0-7.9 0-15.8 0-23.7zm8.9 0v43.1l-7.6-8.9v-34.2zm-7.6-10.7v-47.3c2.7 1.3 5.2 2.6 7.8 4.1h-.2v43.2zm16.6 10.7c-.1 17.9-.1 35.9 0 53.7l-7.7-9.1v-44.6zm-7.7-10.7v-42.5c2.7 1.7 5.4 3.5 7.9 5.5-.1 12.2-.1 24.6-.2 37zm16.8 10.7c-.2 21.4-.2 42.9-.1 64.2l-7.6-8.9c-.1-18.4-.1-36.9 0-55.3zm-7.7-10.7c0-12.1.1-24.1.2-35.9 2.8 2.2 5.4 4.6 7.9 7.1-.1 9.6-.2 19.2-.3 28.9zm9.1 0c.1-9.2.2-18.4.3-27.5 3 3.1 5.8 6.5 8.3 10-.1 5.8-.2 11.6-.2 17.4zm-133.8 10.7c.1 26.8.1 55.3 0 87.1-2.7-2.9-5.1-6-7.4-9.2 0-25.6 0-51.8-.1-77.9zm-7.6-10.7c0-5.6 0-11.1-.1-16.7 2.3-3.3 4.7-6.4 7.4-9.3.1 8.5.1 17.2.2 26zm-1.3 10.7c.1 25.4.1 51 .1 76-2.9-4.4-5.4-9-7.6-13.8 0-20.4 0-41.3-.1-62.1zm-7.6-10.7c0-.3 0-.5 0-.8 2.1-4.9 4.7-9.5 7.6-13.9 0 4.9 0 9.8.1 14.7zm-1.2 69.6c-4.2-10.5-6.5-21.9-6.5-33.8 0-8.7 1.2-17.2 3.5-25.2h2.8c.2 19.8.2 39.6.2 59z"/></svg>